<?xml version="1.0" encoding="UTF-8" standalone="no"?>
<!DOCTYPE svg PUBLIC "-//W3C//DTD SVG 1.1//EN" "http://www.w3.org/Graphics/SVG/1.1/DTD/svg11.dtd">
<svg version="1.1" xmlns="http://www.w3.org/2000/svg" xmlns:xlink="http://www.w3.org/1999/xlink" preserveAspectRatio="xMidYMid meet" viewBox="0 0 557 156" width="557" height="156"><defs><path d="M212.45 34.95L212.45 71.53L200.97 71.53L200.97 35.01L187.87 35.01L187.87 25.77L225.43 25.77L225.43 34.95L212.45 34.95Z" id="bduxcIIRi"></path><path d="M232.77 71.53L232.77 25.77L265.1 25.77L265.1 35.07L244.2 35.07L244.2 43.8L261.61 43.8L261.61 53.04L244.2 53.04L244.2 62.15L265.23 62.15L265.23 71.52L232.77 71.53Z" id="b1uvdSE2ff"></path><path d="M272.39 55.8C272.39 54.41 272.39 43.26 272.39 41.87C272.39 30.64 281.5 24.99 291.58 24.99C300.49 24.99 310.19 29.48 310.19 40.01C310.19 40.16 310.19 40.89 310.19 42.2L299.4 42.2C299.4 41.54 299.4 41.18 299.4 41.11C299.4 36.35 295.3 34.28 291.82 34.28C287.73 34.28 283.86 36.39 283.86 41.6C283.86 42.99 283.86 54.15 283.86 55.54C283.86 60.22 287.26 62.91 291.95 62.91C295.47 62.91 299.39 60.92 299.39 56.09C299.39 56.02 299.39 55.67 299.39 55.05L310.18 55.05C310.18 56.4 310.18 57.15 310.18 57.3C310.19 67.8 300.75 72.3 291.9 72.3C281.83 72.3 272.39 67.23 272.39 55.8Z" id="a3G2MyStoV"></path><path d="M343.24 71.53L343.24 53.3L329.58 53.3L329.58 71.53L318.15 71.53L318.15 25.77L329.58 25.77L329.58 43.34L343.24 43.34L343.24 25.77L354.72 25.77L354.72 71.53L343.24 71.53Z" id="btgUUvr8W"></path><path d="M391.44 71.53L374.96 45.11L374.84 45.11L374.84 71.53L364.26 71.53L364.26 25.77L375.36 25.77L391.35 50.75L391.47 50.75L391.47 25.77L402.12 25.77L402.12 71.53L391.44 71.53Z" id="d7pweFuRz"></path><path d="M411.53 71.53L411.53 25.77L423.02 25.77L423.02 71.53L411.53 71.53Z" id="a2pNM9NuC0"></path><path d="M431.46 55.8C431.46 54.41 431.46 43.26 431.46 41.87C431.46 30.64 440.51 25 450.64 25C459.56 25 469.26 29.5 469.26 40.03C469.26 40.17 469.26 40.9 469.26 42.21L458.47 42.21C458.47 41.56 458.47 41.19 458.47 41.12C458.47 36.37 454.37 34.29 450.89 34.29C446.79 34.29 442.93 36.41 442.93 41.61C442.93 43 442.93 54.15 442.93 55.54C442.93 60.22 446.33 62.91 451.01 62.91C454.54 62.91 458.46 60.92 458.46 56.09C458.46 56.02 458.46 55.67 458.46 55.05L469.24 55.05C469.24 56.4 469.24 57.15 469.24 57.3C469.26 67.8 459.84 72.3 450.97 72.3C440.89 72.3 431.46 67.23 431.46 55.8Z" id="a8vQrrM7gQ"></path><path d="M506.46 71.53L503.73 63L487.34 63L484.51 71.53L473.59 71.53L489.82 25.7L502.12 25.7L518.16 71.53L506.46 71.53ZM490.1 53.96L500.89 53.96L495.61 37.39L495.42 37.39L490.1 53.96Z" id="b94o4kLkj"></path><path d="M525.02 71.53L525.02 25.77L536.45 25.77L536.45 62.15L556.93 62.15L556.93 71.52L525.02 71.53Z" id="a7LTIWy9V"></path><path d="M187.01 123.21C187.74 122.55 193.54 117.32 194.26 116.67C196.99 120.34 201.3 122.51 205.88 122.51C209.28 122.51 213.07 121.35 213.07 118.14C213.07 115.64 211.21 114.81 208.9 113.91C207.74 113.46 202.48 112.05 200.94 111.65C194.59 110.06 189.13 106.64 189.13 98.88C189.13 90.28 196.26 84.12 206.46 84.12C214.47 84.12 220 86.36 223.65 91.25C222.91 91.87 216.95 96.86 216.21 97.48C213.86 94.63 210.34 93.01 206.65 93.11C203.32 93.11 200.42 94.47 200.42 97.53C200.42 100.59 203.15 100.93 206.58 101.83C207.67 102.15 212.17 103.31 213.31 103.64C220.05 105.49 224.8 109.1 224.8 116.47C224.74 126.46 215.83 131.4 206.39 131.4C198.37 131.4 191.37 129.22 187.01 123.21Z" id="b2C8bLXRaf"></path><path d="M261.74 130.64L259.01 122.1L242.62 122.1L239.76 130.64L228.84 130.64L245.08 84.81L257.37 84.81L273.41 130.64L261.74 130.64ZM245.36 113.06L256.15 113.06L250.89 96.5L250.69 96.5L245.36 113.06Z" id="a3fcZAyMTk"></path><path d="M291.78 94.17L291.78 103.42L311.58 103.42L311.58 112.72L291.78 112.72L291.78 130.62L280.3 130.62L280.3 84.87L315.37 84.87L315.37 94.17L291.78 94.17Z" id="c24IPtjTL2"></path><path d="M322.32 130.64L322.32 84.87L357.11 84.87L357.11 94.17L333.75 94.17L333.75 102.85L352.22 102.85L352.22 112.09L333.75 112.09L333.75 121.2L357.21 121.2L357.21 130.57L322.32 130.64Z" id="a4dvGjTFF"></path><path d="M387.85 94.05L387.85 130.64L376.33 130.64L376.33 94.12L363.3 94.12L363.3 84.87L400.79 84.87L400.79 94.05L387.85 94.05Z" id="cE08q4hP9"></path><path d="M431.42 112.6L431.42 130.64L420.03 130.64L420.03 112.53L405.01 84.87L417.01 84.87L426.12 102.71L435.23 84.87L446.52 84.87L431.42 112.6Z" id="irPV6j4oB"></path><path d="M489.14 84.92L489.9 84.99L490.63 85.07L491.34 85.18L492.03 85.32L492.69 85.48L493.33 85.66L493.94 85.86L494.53 86.08L495.09 86.33L495.63 86.6L496.15 86.89L496.64 87.2L497.1 87.53L497.54 87.88L497.96 88.24L498.35 88.63L498.72 89.04L499.06 89.46L499.38 89.91L499.67 90.37L499.94 90.85L500.18 91.34L500.4 91.85L500.59 92.38L500.75 92.92L500.89 93.48L501.01 94.06L501.1 94.65L501.16 95.25L501.2 95.86L501.21 96.5L501.22 96.91L501.22 97.32L501.19 97.72L501.16 98.13L501.1 98.52L501.03 98.92L500.95 99.31L500.85 99.7L500.74 100.08L500.61 100.45L500.47 100.82L500.32 101.19L500.15 101.55L499.97 101.9L499.78 102.24L499.58 102.57L499.36 102.9L499.13 103.22L498.89 103.53L498.63 103.83L498.37 104.13L498.09 104.41L497.8 104.68L497.51 104.94L497.2 105.19L496.88 105.43L496.55 105.66L496.21 105.88L495.87 106.08L495.51 106.27L495.14 106.45L494.77 106.61L494.39 106.76L494.39 106.94L494.81 107.07L495.24 107.21L495.65 107.37L496.05 107.55L496.44 107.74L496.82 107.94L497.2 108.16L497.56 108.4L497.91 108.65L498.25 108.91L498.57 109.18L498.89 109.47L499.19 109.77L499.49 110.08L499.76 110.4L500.03 110.73L500.28 111.08L500.52 111.43L500.74 111.79L500.95 112.16L501.15 112.54L501.32 112.93L501.49 113.32L501.64 113.72L501.77 114.13L501.88 114.55L501.98 114.97L502.07 115.39L502.13 115.83L502.18 116.26L502.21 116.7L502.22 117.15L502.21 117.59L502.19 118.27L502.15 118.94L502.07 119.59L501.96 120.24L501.82 120.86L501.66 121.48L501.47 122.08L501.25 122.66L501 123.23L500.73 123.78L500.43 124.32L500.11 124.84L499.76 125.34L499.38 125.82L498.99 126.28L498.56 126.72L498.12 127.14L497.65 127.55L497.16 127.92L496.65 128.28L496.11 128.62L495.56 128.93L494.98 129.21L494.39 129.48L493.77 129.71L493.14 129.92L492.48 130.11L491.81 130.27L491.12 130.4L490.42 130.5L489.69 130.58L488.96 130.62L488.2 130.64L462.89 130.64L462.89 84.87L487.56 84.87L488.36 84.89L489.14 84.92ZM484.21 111.64L483.56 111.65L482.66 111.65L481.49 111.65L480.07 111.65L478.39 111.66L476.45 111.66L474.26 111.67L474.26 121.68L484.73 121.68L485.89 121.6L486.94 121.38L487.85 121.01L488.65 120.52L489.3 119.91L489.82 119.19L490.2 118.38L490.43 117.47L490.51 116.47L490.43 115.5L490.21 114.62L489.85 113.85L489.34 113.19L488.7 112.64L487.91 112.21L486.99 111.89L485.93 111.7L484.73 111.64L484.6 111.64L484.21 111.64ZM474.27 93.76L474.27 103.13L484.36 103.13L485.5 103.06L486.5 102.84L487.37 102.49L488.12 102.02L488.73 101.44L489.21 100.76L489.55 99.98L489.76 99.12L489.82 98.19L489.74 97.13L489.47 96.24L489.03 95.51L488.45 94.92L487.76 94.46L486.96 94.12L486.09 93.89L485.17 93.76L484.21 93.72L484.1 93.76L474.27 93.76Z" id="e1iE6yZK3i"></path><path d="M509.3 114.9C509.3 113.51 509.3 102.38 509.3 100.99C509.3 89.76 518.41 84.11 528.49 84.11C537.4 84.11 547.1 88.6 547.1 99.13C547.1 99.28 547.1 100 547.1 101.32L536.31 101.32C536.31 100.66 536.31 100.3 536.31 100.22C536.31 95.47 532.21 93.4 528.73 93.4C524.63 93.4 520.77 95.51 520.77 100.71C520.77 102.1 520.77 113.19 520.77 114.58C520.77 119.26 524.17 121.95 528.85 121.95C532.38 121.95 536.3 119.96 536.3 115.12C536.3 115.05 536.3 114.69 536.3 114.03L547.09 114.03C547.09 115.38 547.09 116.13 547.09 116.28C547.11 126.91 537.68 131.4 528.81 131.4C518.73 131.4 509.3 126.33 509.3 114.9Z" id="e1ESLgCV5"></path><path d="M38.7 11.58C38.61 11.45 38.51 11.33 38.42 11.2C38.37 11.14 38.11 10.82 37.65 10.26C37.06 10.63 36.73 10.84 36.67 10.88C32.11 13.81 27.87 17.2 24 20.99C23.94 21.04 23.68 21.29 23.22 21.74C23.59 22.27 23.8 22.56 23.85 22.61C33.35 35.68 30.46 53.97 17.4 63.48C12.76 66.85 7.23 68.79 1.5 69.05C1.52 69.05 1.61 69.05 1.63 69.05C11.3 69.33 20.67 72.54 28.48 78.26C49.71 62.68 54.29 32.82 38.7 11.58Z" id="alc4tvML"></path><path d="M28.48 78.26C20.68 83.98 11.34 87.2 1.68 87.5C1.67 87.5 1.6 87.5 1.59 87.5C17.73 88.22 30.22 101.89 29.5 118.03C29.24 123.76 27.3 129.29 23.93 133.93C23.89 133.99 23.68 134.28 23.3 134.8C23.77 135.25 24.03 135.5 24.08 135.55C27.95 139.34 32.2 142.73 36.75 145.66C36.82 145.7 37.14 145.91 37.73 146.29C38.15 145.72 38.38 145.41 38.43 145.34C49.14 131.1 51 112.07 43.25 96.02C39.86 88.98 34.78 82.88 28.48 78.26Z" id="b62UP13iw4"></path><path d="M0.52 69.07L1.33 69.03L0.52 69.01L0.52 69.01L0.52 69.07Z" id="b9mWhhiki"></path><path d="M1.7 69.05C1.67 69.05 1.55 69.05 1.33 69.05L0.52 69.05C0.46 69.71 0.42 70.08 0.41 70.15C-0.14 75.54 -0.14 80.97 0.41 86.36C0.42 86.43 0.46 86.79 0.52 87.44L1.34 87.44C1.55 87.44 1.67 87.44 1.7 87.44C11.34 87.16 20.68 83.96 28.48 78.26C20.69 72.56 11.35 69.34 1.7 69.05Z" id="b9K9iG22a"></path><path d="M105.35 152.96L105.35 152.98L105.35 152.98L105.35 152.98L105.35 152.96Z" id="aKPLTkakv"></path><path d="M89.79 156.51C88.12 147.88 88.92 138.96 92.09 130.76C80.26 119.64 63.46 115.55 47.84 119.97C47.33 127.33 45.13 134.47 41.39 140.84C54.55 130.33 73.73 132.48 84.23 145.63C86.8 148.85 88.69 152.56 89.79 156.53" id="i7JRoHNuUj"></path><path d="M105.35 152.98L105.35 152.98L105.17 152.98L105.35 152.98Z" id="d1Um4XpYFS"></path><path d="M89.79 156.51C95.02 155.87 100.17 154.71 105.17 153.03C105.18 153.03 105.24 153.03 105.35 153.03C105.35 153.03 105.35 153.03 105.35 153.03C103.11 144.51 98.51 136.79 92.09 130.76C88.92 138.96 88.12 147.88 89.79 156.51Z" id="bH3DhCld"></path><path d="M83.8 53.14L85.1 53.31L86.38 53.55L87.64 53.85L88.87 54.21L90.08 54.63L91.25 55.11L92.4 55.65L93.51 56.24L94.59 56.88L95.64 57.58L96.65 58.33L97.61 59.12L98.54 59.96L99.43 60.84L100.27 61.77L101.06 62.74L101.8 63.75L102.5 64.79L103.15 65.87L103.74 66.98L104.27 68.13L104.75 69.31L105.18 70.51L105.54 71.74L105.84 73L106.07 74.28L106.25 75.59L106.35 76.91L106.38 78.25L106.38 78.26L106.35 79.6L106.24 80.93L106.07 82.23L105.83 83.51L105.53 84.76L105.17 85.99L104.74 87.2L104.26 88.37L103.73 89.52L103.13 90.63L102.49 91.71L101.79 92.76L101.05 93.76L100.25 94.73L99.41 95.65L98.53 96.54L97.6 97.38L96.63 98.17L95.63 98.92L94.58 99.61L93.5 100.26L92.39 100.85L91.25 101.39L90.07 101.87L88.87 102.29L87.63 102.65L86.38 102.95L85.1 103.19L83.8 103.36L82.47 103.46L81.13 103.5L79.79 103.47L78.47 103.36L77.17 103.19L75.89 102.95L74.63 102.65L73.4 102.29L72.19 101.87L71.01 101.39L69.87 100.85L68.75 100.26L67.67 99.62L66.63 98.92L65.62 98.18L64.65 97.38L63.73 96.54L62.84 95.66L62 94.73L61.21 93.76L60.46 92.76L59.77 91.71L59.12 90.63L58.53 89.52L57.99 88.37L57.51 87.19L57.09 85.99L56.73 84.76L56.43 83.5L56.19 82.22L56.02 80.91L55.92 79.59L55.88 78.25L55.92 76.91L56.02 75.59L56.19 74.28L56.43 73L56.73 71.74L57.09 70.51L57.51 69.31L57.99 68.13L58.53 66.98L59.12 65.87L59.77 64.79L60.46 63.75L61.21 62.74L62 61.77L62.84 60.84L63.73 59.96L64.65 59.12L65.62 58.33L66.63 57.58L67.67 56.88L68.75 56.24L69.87 55.65L71.01 55.11L72.19 54.63L73.4 54.21L74.63 53.85L75.89 53.55L77.17 53.31L78.47 53.14L79.79 53.03L81.13 53L82.47 53.03L83.8 53.14ZM78.42 65.88L77.13 66.23L75.9 66.71L74.74 67.31L73.65 68.03L72.65 68.84L71.73 69.76L70.91 70.76L70.2 71.85L69.59 73.01L69.11 74.24L68.76 75.52L68.54 76.86L68.46 78.24L68.53 79.62L68.75 80.95L69.1 82.24L69.58 83.47L70.18 84.63L70.9 85.72L71.71 86.72L72.63 87.64L73.63 88.46L74.72 89.17L75.88 89.78L77.11 90.26L78.39 90.61L79.73 90.83L81.11 90.91L82.49 90.84L83.82 90.62L85.11 90.27L86.34 89.79L87.5 89.19L88.59 88.48L89.59 87.66L90.51 86.74L91.33 85.74L92.04 84.65L92.65 83.49L93.13 82.26L93.48 80.98L93.7 79.64L93.78 78.26L93.71 76.89L93.49 75.55L93.14 74.26L92.65 73.04L92.05 71.88L91.34 70.79L90.52 69.78L89.61 68.87L88.6 68.05L87.52 67.33L86.36 66.73L85.13 66.24L83.85 65.89L82.51 65.67L81.13 65.59L79.75 65.66L78.42 65.88Z" id="dyKev9luk"></path><path d="M92.09 130.76C98.5 136.77 103.1 144.46 105.35 152.96C102.37 136.39 113.4 120.55 129.97 117.58C134 116.86 138.14 116.95 142.14 117.87C136 113.74 130.91 108.25 127.26 101.82C111.27 104.62 97.92 115.6 92.09 130.76Z" id="b1Qxqz6ZfN"></path><path d="M89.76 0C85.28 16.23 68.49 25.75 52.27 21.26C48.3 20.17 44.59 18.28 41.37 15.7C45.11 22.07 47.32 29.21 47.83 36.57C63.45 40.99 80.24 36.89 92.07 25.77C88.9 17.57 88.1 8.64 89.76 0" id="a1kBitWwF8"></path><path d="M105.32 3.55C103.08 12.05 98.49 19.74 92.07 25.76C97.91 40.91 111.26 51.88 127.25 54.68C130.9 48.26 135.99 42.78 142.12 38.66C125.71 42.42 109.37 32.16 105.61 15.75C104.69 11.73 104.6 7.57 105.33 3.51" id="cBvTRtxO7"></path><path d="M90.3 0.08C90.24 0.07 89.78 0.01 89.72 0C88.06 8.64 88.86 17.57 92.03 25.77C98.46 19.76 103.07 12.06 105.32 3.55C100.44 1.9 95.41 0.74 90.3 0.08Z" id="e19CnHkrNm"></path><path d="M154.85 52.52C154.91 52.49 155.23 52.31 155.81 52C155.59 51.39 155.46 51.05 155.44 50.98C153.59 45.89 151.23 41 148.39 36.38C148.35 36.31 148.15 35.98 147.78 35.38C147.15 35.71 146.81 35.89 146.74 35.93C123.36 48.07 114.25 76.87 126.39 100.25C130.91 108.96 138.02 116.07 146.74 120.6C146.81 120.63 147.15 120.82 147.78 121.14C148.15 120.55 148.35 120.21 148.39 120.15C151.22 115.54 153.58 110.66 155.42 105.58C155.45 105.51 155.57 105.17 155.79 104.55C155.22 104.24 154.9 104.07 154.84 104.03C145.37 98.92 139.48 89.02 139.49 78.26C139.49 67.51 145.39 57.63 154.85 52.52Z" id="h8uHObN7"></path></defs><g><g><g><use xlink:href="#bduxcIIRi" opacity="1" fill="#004a7c" fill-opacity="1"></use><g><use xlink:href="#bduxcIIRi" opacity="1" fill-opacity="0" stroke="#000000" stroke-width="1" stroke-opacity="0"></use></g></g><g><use xlink:href="#b1uvdSE2ff" opacity="1" fill="#004a7c" fill-opacity="1"></use><g><use xlink:href="#b1uvdSE2ff" opacity="1" fill-opacity="0" stroke="#000000" stroke-width="1" stroke-opacity="0"></use></g></g><g><use xlink:href="#a3G2MyStoV" opacity="1" fill="#004a7c" fill-opacity="1"></use><g><use xlink:href="#a3G2MyStoV" opacity="1" fill-opacity="0" stroke="#000000" stroke-width="1" stroke-opacity="0"></use></g></g><g><use xlink:href="#btgUUvr8W" opacity="1" fill="#004a7c" fill-opacity="1"></use><g><use xlink:href="#btgUUvr8W" opacity="1" fill-opacity="0" stroke="#000000" stroke-width="1" stroke-opacity="0"></use></g></g><g><use xlink:href="#d7pweFuRz" opacity="1" fill="#004a7c" fill-opacity="1"></use><g><use xlink:href="#d7pweFuRz" opacity="1" fill-opacity="0" stroke="#000000" stroke-width="1" stroke-opacity="0"></use></g></g><g><use xlink:href="#a2pNM9NuC0" opacity="1" fill="#004a7c" fill-opacity="1"></use><g><use xlink:href="#a2pNM9NuC0" opacity="1" fill-opacity="0" stroke="#000000" stroke-width="1" stroke-opacity="0"></use></g></g><g><use xlink:href="#a8vQrrM7gQ" opacity="1" fill="#004a7c" fill-opacity="1"></use><g><use xlink:href="#a8vQrrM7gQ" opacity="1" fill-opacity="0" stroke="#000000" stroke-width="1" stroke-opacity="0"></use></g></g><g><use xlink:href="#b94o4kLkj" opacity="1" fill="#004a7c" fill-opacity="1"></use><g><use xlink:href="#b94o4kLkj" opacity="1" fill-opacity="0" stroke="#000000" stroke-width="1" stroke-opacity="0"></use></g></g><g><use xlink:href="#a7LTIWy9V" opacity="1" fill="#004a7c" fill-opacity="1"></use><g><use xlink:href="#a7LTIWy9V" opacity="1" fill-opacity="0" stroke="#000000" stroke-width="1" stroke-opacity="0"></use></g></g><g><use xlink:href="#b2C8bLXRaf" opacity="1" fill="#004a7c" fill-opacity="1"></use><g><use xlink:href="#b2C8bLXRaf" opacity="1" fill-opacity="0" stroke="#000000" stroke-width="1" stroke-opacity="0"></use></g></g><g><use xlink:href="#a3fcZAyMTk" opacity="1" fill="#004a7c" fill-opacity="1"></use><g><use xlink:href="#a3fcZAyMTk" opacity="1" fill-opacity="0" stroke="#000000" stroke-width="1" stroke-opacity="0"></use></g></g><g><use xlink:href="#c24IPtjTL2" opacity="1" fill="#004a7c" fill-opacity="1"></use><g><use xlink:href="#c24IPtjTL2" opacity="1" fill-opacity="0" stroke="#000000" stroke-width="1" stroke-opacity="0"></use></g></g><g><use xlink:href="#a4dvGjTFF" opacity="1" fill="#004a7c" fill-opacity="1"></use><g><use xlink:href="#a4dvGjTFF" opacity="1" fill-opacity="0" stroke="#000000" stroke-width="1" stroke-opacity="0"></use></g></g><g><use xlink:href="#cE08q4hP9" opacity="1" fill="#004a7c" fill-opacity="1"></use><g><use xlink:href="#cE08q4hP9" opacity="1" fill-opacity="0" stroke="#000000" stroke-width="1" stroke-opacity="0"></use></g></g><g><use xlink:href="#irPV6j4oB" opacity="1" fill="#004a7c" fill-opacity="1"></use><g><use xlink:href="#irPV6j4oB" opacity="1" fill-opacity="0" stroke="#000000" stroke-width="1" stroke-opacity="0"></use></g></g><g><use xlink:href="#e1iE6yZK3i" opacity="1" fill="#1598cb" fill-opacity="1"></use><g><use xlink:href="#e1iE6yZK3i" opacity="1" fill-opacity="0" stroke="#000000" stroke-width="1" stroke-opacity="0"></use></g></g><g><use xlink:href="#e1ESLgCV5" opacity="1" fill="#1598cb" fill-opacity="1"></use><g><use xlink:href="#e1ESLgCV5" opacity="1" fill-opacity="0" stroke="#000000" stroke-width="1" stroke-opacity="0"></use></g></g><g><use xlink:href="#alc4tvML" opacity="1" fill="#1598cb" fill-opacity="1"></use><g><use xlink:href="#alc4tvML" opacity="1" fill-opacity="0" stroke="#000000" stroke-width="1" stroke-opacity="0"></use></g></g><g><use xlink:href="#b62UP13iw4" opacity="1" fill="#1598cb" fill-opacity="1"></use><g><use xlink:href="#b62UP13iw4" opacity="1" fill-opacity="0" stroke="#000000" stroke-width="1" stroke-opacity="0"></use></g></g><g><use xlink:href="#b9mWhhiki" opacity="1" fill="#1598cb" fill-opacity="1"></use><g><use xlink:href="#b9mWhhiki" opacity="1" fill-opacity="0" stroke="#000000" stroke-width="1" stroke-opacity="0"></use></g></g><g><use xlink:href="#b9K9iG22a" opacity="1" fill="#0079b2" fill-opacity="1"></use><g><use xlink:href="#b9K9iG22a" opacity="1" fill-opacity="0" stroke="#000000" stroke-width="1" stroke-opacity="0"></use></g></g><g><use xlink:href="#aKPLTkakv" opacity="1" fill="#004a7c" fill-opacity="1"></use><g><use xlink:href="#aKPLTkakv" opacity="1" fill-opacity="0" stroke="#000000" stroke-width="1" stroke-opacity="0"></use></g></g><g><use xlink:href="#i7JRoHNuUj" opacity="1" fill="#004a7c" fill-opacity="1"></use><g><use xlink:href="#i7JRoHNuUj" opacity="1" fill-opacity="0" stroke="#000000" stroke-width="1" stroke-opacity="0"></use></g></g><g><use xlink:href="#d1Um4XpYFS" opacity="1" fill="#004a7c" fill-opacity="1"></use><g><use xlink:href="#d1Um4XpYFS" opacity="1" fill-opacity="0" stroke="#000000" stroke-width="1" stroke-opacity="0"></use></g></g><g><use xlink:href="#bH3DhCld" opacity="1" fill="#001a4b" fill-opacity="1"></use><g><use xlink:href="#bH3DhCld" opacity="1" fill-opacity="0" stroke="#000000" stroke-width="1" stroke-opacity="0"></use></g></g><g><use xlink:href="#dyKev9luk" opacity="1" fill="#004a7c" fill-opacity="1"></use><g><use xlink:href="#dyKev9luk" opacity="1" fill-opacity="0" stroke="#000000" stroke-width="1" stroke-opacity="0"></use></g></g><g><use xlink:href="#b1Qxqz6ZfN" opacity="1" fill="#004a7c" fill-opacity="1"></use><g><use xlink:href="#b1Qxqz6ZfN" opacity="1" fill-opacity="0" stroke="#000000" stroke-width="1" stroke-opacity="0"></use></g></g><g><use xlink:href="#a1kBitWwF8" opacity="1" fill="#004a7c" fill-opacity="1"></use><g><use xlink:href="#a1kBitWwF8" opacity="1" fill-opacity="0" stroke="#000000" stroke-width="1" stroke-opacity="0"></use></g></g><g><use xlink:href="#cBvTRtxO7" opacity="1" fill="#004a7c" fill-opacity="1"></use><g><use xlink:href="#cBvTRtxO7" opacity="1" fill-opacity="0" stroke="#000000" stroke-width="1" stroke-opacity="0"></use></g></g><g><use xlink:href="#e19CnHkrNm" opacity="1" fill="#001a4b" fill-opacity="1"></use><g><use xlink:href="#e19CnHkrNm" opacity="1" fill-opacity="0" stroke="#000000" stroke-width="1" stroke-opacity="0"></use></g></g><g><use xlink:href="#h8uHObN7" opacity="1" fill="#1598cb" fill-opacity="1"></use><g><use xlink:href="#h8uHObN7" opacity="1" fill-opacity="0" stroke="#000000" stroke-width="1" stroke-opacity="0"></use></g></g></g></g></svg>